<svg id="ic_groups" xmlns="http://www.w3.org/2000/svg" width="58.769" height="58.769" viewBox="0 0 58.769 58.769">
  <path id="Path_2516" data-name="Path 2516" d="M0,0H58.769V58.769H0Z" fill="none"/>
  <path id="Path_2517" data-name="Path 2517" d="M2,54.259a20.289,20.289,0,0,1,40.579,0H37.506a15.217,15.217,0,1,0-30.434,0ZM22.289,31.434A15.217,15.217,0,1,1,37.506,16.217,15.213,15.213,0,0,1,22.289,31.434Zm0-5.072A10.145,10.145,0,1,0,12.145,16.217,10.142,10.142,0,0,0,22.289,26.362ZM43.3,35.753A20.294,20.294,0,0,1,55.259,54.259H50.187a15.221,15.221,0,0,0-8.973-13.882L43.3,35.753ZM41.554,7.12a13.953,13.953,0,0,1-4.048,26.795V28.809a8.877,8.877,0,0,0,2.64-16.762Z" transform="translate(1.673 0.837)" fill="#fff"/>
</svg>
